<svg width="85" height="85" viewBox="0 0 85 85" fill="none" xmlns="http://www.w3.org/2000/svg">
<rect width="85" height="85" rx="10" fill="white"/>
<g clip-path="url(#clip0_7_1437)">
<path d="M33.8831 12C34.2083 12.3137 34.6221 12.5758 34.8414 12.9498C35.2732 13.7174 35.6654 14.5066 36.0164 15.3143C36.1667 15.6403 36.3477 15.8138 36.7332 15.8568C37.7099 15.9663 38.6805 16.1447 39.6548 16.2776C40.1228 16.3428 40.4849 16.5396 40.6278 17.0022C40.7707 17.4648 40.5502 17.8302 40.2176 18.1488C39.5353 18.8008 38.8751 19.4762 38.1792 20.1172C38.0431 20.2219 37.9414 20.3649 37.8872 20.5278C37.833 20.6907 37.8287 20.866 37.875 21.0313C38.0622 21.954 38.1804 22.8902 38.3677 23.8141C38.4588 24.2767 38.4206 24.6814 38.0474 24.9865C37.6373 25.3212 37.1988 25.2068 36.7776 24.9865C35.9228 24.5437 35.0606 24.1118 34.2218 23.6333C33.893 23.4475 33.643 23.4647 33.3227 23.6431C32.4893 24.1324 31.6309 24.578 30.751 24.9779C30.4061 25.1256 29.8568 25.1563 29.5698 24.9779C29.3235 24.8168 29.1781 24.2742 29.2089 23.9187C29.2988 23.0012 29.4461 22.0903 29.6499 21.1912C29.757 20.6893 29.6499 20.3497 29.2631 20.0102C28.5945 19.436 27.9634 18.8196 27.3737 18.1648C27.1274 17.8769 26.9242 17.4168 26.9451 17.0477C26.9747 16.5556 27.4378 16.3502 27.9305 16.285C28.9059 16.1558 29.8753 15.9749 30.8532 15.8679C31.2227 15.8273 31.3853 15.6563 31.5269 15.3561C31.8964 14.5589 32.266 13.7494 32.7044 12.9928C32.9261 12.6139 33.3203 12.3371 33.6405 12.0148L33.8831 12ZM30.0071 17.9753C30.4615 18.4182 30.8113 18.7885 31.1907 19.1232C31.6994 19.5722 31.8952 20.0864 31.7216 20.7643C31.5984 21.2564 31.5565 21.7793 31.4629 22.3883C31.9962 22.1127 32.4322 21.9318 32.8177 21.6759C33.4853 21.238 34.1073 21.2773 34.7662 21.6932C35.1628 21.9392 35.6026 22.1274 36.1075 22.3846C36.0139 21.8396 35.9758 21.409 35.8612 21.0005C35.6149 20.1467 35.8612 19.4898 36.5448 18.9423C36.8798 18.6753 37.1606 18.3358 37.5203 17.9692C36.8699 17.8695 36.3489 17.7613 35.8218 17.7231C35.1715 17.6702 34.7823 17.3258 34.5248 16.7574C34.3093 16.2825 34.0617 15.8224 33.7711 15.2405C33.4755 15.8384 33.2267 16.3231 32.9939 16.8152C32.7475 17.3344 32.378 17.6567 31.7807 17.7133C31.2375 17.7588 30.6968 17.8683 30.0071 17.9753Z" fill="#272425"/>
<path d="M35.6038 63.3089C36.0965 62.9829 36.4869 62.7356 36.8651 62.4674C37.3454 62.1278 37.8073 62.1389 38.2876 62.4674C38.8961 62.8869 39.5279 63.272 40.1265 63.6977C40.4184 63.908 40.6315 63.9339 40.937 63.7075C41.5122 63.2806 42.1378 62.9201 42.7217 62.5043C43.2402 62.1352 43.723 62.1192 44.2477 62.4932C44.8155 62.8968 45.4227 63.2474 45.9831 63.6595C46.3095 63.9056 46.5472 63.9449 46.8958 63.678C47.4648 63.2425 48.0905 62.8845 48.6805 62.4736C49.183 62.1242 49.6584 62.1242 50.1585 62.4846C50.5182 62.7454 50.8975 62.9767 51.3668 63.2892V46.479H53.3498V47.1225C53.3498 52.9662 53.3498 58.8099 53.3646 64.6548C53.374 64.9489 53.3194 65.2416 53.2046 65.5127C53.0898 65.7837 52.9174 66.0266 52.6994 66.2246C49.9898 68.9082 47.2887 71.6041 44.5963 74.3123C43.6897 75.2214 43.303 75.2239 42.4051 74.3258C39.6782 71.5971 36.9488 68.8713 34.217 66.1483C33.8475 65.7792 33.627 65.4016 33.6282 64.8578C33.6397 57.2302 33.6434 49.6026 33.6393 41.9751V41.5679H35.61L35.6038 63.3089ZM36.2197 65.324C37.4131 66.5235 38.5746 67.7083 39.7607 68.8659C39.9468 69.0112 40.1774 69.0877 40.4135 69.0825C42.2992 69.0985 44.1861 69.0591 46.0706 69.1095C46.7443 69.128 47.2173 68.941 47.6718 68.4575C48.678 67.3946 49.7373 66.3821 50.8064 65.3167C50.4467 65.0706 50.1425 64.9008 49.8789 64.6794C49.5353 64.3891 49.2557 64.4333 48.9096 64.6917C48.3319 65.1149 47.7161 65.484 47.1249 65.8887C46.6618 66.2049 46.2208 66.2024 45.7577 65.8887C45.116 65.4483 44.4731 65.0079 43.8043 64.6117C43.7059 64.5647 43.5981 64.5403 43.489 64.5403C43.3799 64.5403 43.2721 64.5647 43.1737 64.6117C42.5049 65.0079 41.862 65.4495 41.219 65.8887C40.7584 66.2037 40.315 66.2184 39.8531 65.8961C39.4836 65.639 39.103 65.404 38.7273 65.1494C37.476 64.3103 37.476 64.3103 36.2221 65.3302L36.2197 65.324ZM43.3486 72.4386L44.7268 71.1124H42.0356L43.3486 72.4386Z" fill="#272425"/>
<path d="M45.0754 32.3422C45.3365 30.8069 45.6001 29.1706 45.9018 27.5442C45.9917 27.0608 45.9376 26.7138 45.5483 26.3546C44.4041 25.2966 43.3055 24.1906 42.1871 23.1043C41.8545 22.7819 41.5503 22.4485 41.6944 21.9306C41.8545 21.3647 42.3103 21.2084 42.8214 21.1359C44.3844 20.9156 45.9449 20.6819 47.5104 20.4789C47.9366 20.4235 48.194 20.2611 48.3849 19.8638C49.0672 18.4207 49.7988 17.001 50.4984 15.5653C50.7127 15.1285 50.9813 14.8148 51.5158 14.8185C52.0503 14.8222 52.3201 15.1248 52.5332 15.5653C53.2291 17.0022 53.9545 18.4244 54.6393 19.8712C54.8167 20.2402 55.0384 20.4334 55.451 20.4863C56.9955 20.6868 58.5363 20.9156 60.0784 21.1346C60.1813 21.1332 60.2834 21.1537 60.3777 21.1949C60.6979 21.4127 61.1167 21.5874 61.2928 21.8949C61.5392 22.3071 61.2583 22.7106 60.9233 23.0317C59.7311 24.1881 58.5511 25.3581 57.3515 26.5022C57.0793 26.7606 57.0177 27.0042 57.0842 27.3634C57.3798 28.975 57.636 30.5928 57.9217 32.2057C58.003 32.6633 57.9673 33.0668 57.5756 33.367C57.1544 33.6857 56.7245 33.5663 56.3045 33.3461C54.9263 32.6215 53.532 31.9252 52.176 31.1612C51.6833 30.8844 51.3237 30.893 50.8396 31.1612C49.4441 31.9399 48.024 32.6744 46.6002 33.399C45.7577 33.8235 45.0335 33.3572 45.0754 32.3422ZM55.6862 30.77C55.4781 29.5791 55.3463 28.5211 55.0975 27.4913C54.8696 26.549 55.0778 25.86 55.8156 25.2031C56.6322 24.476 57.3281 23.6136 58.0572 22.8324C57.0719 22.6847 55.9966 22.4633 54.9177 22.3846C53.9323 22.312 53.3572 21.8691 52.9827 20.9735C52.5701 19.9893 52.0454 19.0481 51.5158 17.9778C50.9357 19.1428 50.3827 20.1664 49.9146 21.2281C49.5919 21.9564 49.0869 22.2677 48.3134 22.3501C47.1692 22.4731 46.0336 22.6798 45.0076 22.8336C45.8415 23.728 46.6605 24.6421 47.5215 25.518C47.9476 25.9523 48.1533 26.4038 47.992 27.0079C47.9247 27.2863 47.8717 27.568 47.8331 27.8518C47.6816 28.7831 47.535 29.7169 47.37 30.7552C48.5647 30.129 49.6412 29.5852 50.6955 29.0021C50.9384 28.8502 51.2193 28.7696 51.5059 28.7696C51.7926 28.7696 52.0734 28.8502 52.3164 29.0021C53.3904 29.5951 54.4878 30.145 55.6862 30.77Z" fill="#272425"/>
<path d="M27.8467 39.955C27.6768 39.8824 27.3541 39.7606 27.0474 39.6093C26.349 39.2673 25.658 38.6387 24.9634 38.6374C24.2687 38.6362 23.5765 39.2587 22.8831 39.6081C22.7365 39.6819 22.5924 39.8148 22.4434 39.8185C22.0739 39.8283 21.6083 39.9058 21.3669 39.7188C21.1255 39.5318 20.9826 39.0446 21.0048 38.7026C21.0647 37.9679 21.1883 37.2397 21.3743 36.5263C21.4777 36.1031 21.3644 35.8411 21.0577 35.5667C20.5244 35.0881 19.9776 34.6108 19.5268 34.0584C19.2977 33.7792 19.1018 33.2858 19.1967 32.9856C19.2915 32.6855 19.7337 32.3865 20.0798 32.2942C20.8077 32.1011 21.58 32.074 22.319 31.9129C22.5943 31.8418 22.8332 31.6707 22.989 31.4331C23.3585 30.7995 23.6664 30.1253 23.983 29.4647C24.1887 29.0328 24.5286 28.7068 24.9818 28.8114C25.3588 28.9158 25.6866 29.1503 25.9068 29.4733C26.2948 30.0712 26.5781 30.738 26.8737 31.39C27.0351 31.7419 27.2432 31.919 27.6534 31.9571C28.4096 32.0156 29.16 32.1341 29.8975 32.3115C30.2239 32.3963 30.6365 32.6879 30.7313 32.977C30.8261 33.2661 30.6673 33.7533 30.4517 34.0141C29.9689 34.5936 29.3912 35.0968 28.8333 35.6135C28.5697 35.8595 28.449 36.0773 28.5389 36.4623C28.7101 37.2005 28.8124 37.9522 28.9306 38.7002C29.0402 39.4039 28.6498 39.9341 27.8467 39.955ZM24.9351 31.9744C24.5828 33.3806 23.6714 33.976 22.2328 33.9932C23.542 34.7634 23.6923 35.8386 23.2895 37.1513C24.4214 36.2667 25.4942 36.268 26.4919 37.1168C26.4919 36.4759 26.3502 35.8411 26.5325 35.3207C26.7148 34.8003 27.2223 34.4177 27.6792 33.8591C26.1495 34.0523 25.3834 33.2871 24.9351 31.9744Z" fill="#272425"/>
<path d="M60.1018 43.6458C60.2016 43.0786 60.3481 42.3762 60.4344 41.6663C60.4508 41.418 60.3735 41.1726 60.2176 40.9786C59.8259 40.5345 59.3776 40.1383 58.9477 39.7287C58.5942 39.3903 58.2974 39.0397 58.4723 38.4984C58.6472 37.9571 59.0881 37.8341 59.5734 37.7603C60.1609 37.6704 60.757 37.62 61.3322 37.4822C61.5863 37.4086 61.805 37.2456 61.9481 37.0233C62.2511 36.4893 62.5262 35.9398 62.7721 35.3773C62.9728 34.943 63.3078 34.6133 63.7574 34.7154C64.133 34.8227 64.462 35.0521 64.6922 35.3674C65.0046 35.8251 65.2564 36.3214 65.4411 36.8437C65.6283 37.3358 65.9535 37.5154 66.4449 37.5646C67.0366 37.622 67.625 37.7103 68.2074 37.8291C69.1189 38.0149 69.3874 38.8552 68.7506 39.5355C68.2887 40.0276 67.7653 40.4643 67.3157 40.9687C67.1481 41.1771 67.0634 41.44 67.078 41.7069C67.1359 42.3368 67.2812 42.9581 67.3834 43.5843C67.4573 44.0345 67.434 44.5254 66.9708 44.6915C66.5955 44.8083 66.1921 44.7983 65.8229 44.6632C65.233 44.4467 64.7033 44.0653 64.1207 43.818C63.8729 43.7271 63.6001 43.7306 63.3546 43.8278C62.7388 44.0973 62.1612 44.4639 61.5453 44.7382C60.7472 45.1012 60.0809 44.646 60.1018 43.6458ZM65.9079 39.4851C64.7464 39.5134 64.122 38.9204 63.8141 37.9177C63.5111 38.3643 63.3214 38.8453 62.9667 39.1061C62.6119 39.367 62.1045 39.3916 61.6722 39.5195C61.9493 39.8824 62.3373 40.2121 62.4789 40.6267C62.6206 41.0413 62.5085 41.5297 62.5085 42.0772C63.3349 41.3661 64.186 41.4141 65.095 42.0268C64.7403 40.9454 65.0654 40.1519 65.9079 39.4851Z" fill="#272425"/>
<path d="M30.7079 37.5462C30.7079 36.9401 30.7079 36.3328 30.7079 35.7242C36.3995 35.3047 42.6206 40.9909 42.4544 48.3872H40.5884C40.5108 42.3245 35.9474 37.6262 30.7079 37.5462Z" fill="#272425"/>
<path d="M55.2724 40.5197C52.7832 40.8088 51.4542 42.5201 50.3962 44.5107C49.082 46.9798 48.593 49.6703 48.4354 52.4347C48.4206 52.6808 48.4206 52.9268 48.4095 53.1729C48.3975 53.2225 48.3784 53.2701 48.3528 53.3143H46.4265C46.4758 52.5085 46.5004 51.7015 46.578 50.8981C46.8847 47.7388 47.6865 44.7346 49.534 42.092C50.7411 40.3598 52.2659 39.0434 54.4324 38.662C54.6935 38.6165 54.9595 38.6005 55.2761 38.5648L55.2724 40.5197Z" fill="#272425"/>
<path d="M52.3225 35.6049C48.3098 35.9616 46.3243 38.2241 45.4055 43.4711C45.3306 43.4857 45.2549 43.4956 45.1788 43.5006C44.648 43.5006 44.1159 43.5006 43.5875 43.5006C43.218 39.0717 46.95 33.6192 52.3225 33.6869V35.6049Z" fill="#272425"/>
<path d="M15.9018 41.5039H13.9434V39.5884H12.0011V37.6102H13.9188V35.6504H15.8784V37.5659H17.8207V39.5441H15.9018V41.5039Z" fill="#272425"/>
<path d="M70.1153 31.6902H68.1754V29.7341H70.0747V27.7964H72.0564V29.691H73.9988V31.6705H72.1008V33.6082H70.1178L70.1153 31.6902Z" fill="#272425"/>
<path d="M31.7018 25.8034C34.5014 25.8686 36.567 28.5506 36.5731 31.6434H34.6579C34.4288 29.7858 33.9004 28.1114 31.7018 27.7152V25.8034Z" fill="#272425"/>
<path d="M43.4681 32.6264C41.2941 33.0656 40.7153 34.6772 40.4997 36.5792H38.614C38.4293 33.5466 40.8052 30.6974 43.4681 30.7527V32.6264Z" fill="#272425"/>
<path d="M60.2767 30.6703V28.7757H62.1833V30.6703H60.2767Z" fill="#272425"/>
<path d="M13.8771 29.707H11.9951V27.7878H13.8722L13.8771 29.707Z" fill="#272425"/>
<path d="M21.7819 25.7555H19.8778V23.8461H21.7832L21.7819 25.7555Z" fill="#272425"/>
<path d="M67.1211 22.868V24.7651H65.2219V22.868H67.1211Z" fill="#272425"/>
<path d="M73.0073 23.8031H71.1302V21.8826H73.0073V23.8031Z" fill="#272425"/>
<path d="M25.7443 41.563V43.4551H23.8192V41.563H25.7443Z" fill="#272425"/>
<path d="M15.945 16.9333H17.8221V18.8525H15.945V16.9333Z" fill="#272425"/>
<path d="M22.8203 17.8634V15.9651H24.7219V17.8634H22.8203Z" fill="#272425"/>
<path d="M45.4227 47.4104H43.5259V45.5121H45.4264L45.4227 47.4104Z" fill="#272425"/>
<path d="M59.2839 16.8829V14.9846H61.1832V16.8829H59.2839Z" fill="#272425"/>
<path d="M42.479 52.335H40.5699V50.4257H42.4753L42.479 52.335Z" fill="#272425"/>
<path d="M40.5699 56.2559V54.3576H42.4692V56.2559H40.5699Z" fill="#272425"/>
<path d="M48.3701 57.2708H46.4918V55.3504H48.3701V57.2708Z" fill="#272425"/>
<path d="M42.4593 60.2198H40.581V58.3018H42.4593V60.2198Z" fill="#272425"/>
</g>
<defs>
<clipPath id="clip0_7_1437">
<rect width="62" height="63" fill="white" transform="translate(12 12)"/>
</clipPath>
</defs>
</svg>
