<svg width="314" height="74" viewBox="0 0 314 74" fill="none" xmlns="http://www.w3.org/2000/svg">
<path d="M21.915 48.275C17.5517 48.275 13.7567 47.4867 10.53 45.91C7.30333 44.2967 4.82833 42.0233 3.105 39.09C1.38167 36.1567 0.52 32.7467 0.52 28.86C0.52 23.47 1.52833 18.685 3.545 14.505C5.59833 10.325 8.36667 7.09833 11.85 4.825C15.3333 2.515 19.2017 1.36 23.455 1.36C27.415 1.36 30.4217 2.38666 32.475 4.44C34.5283 6.45666 35.555 9.13333 35.555 12.47C35.555 14.7067 35.1517 16.5033 34.345 17.86C33.575 19.2167 32.4567 19.895 30.99 19.895C29.9633 19.895 29.1567 19.6567 28.57 19.18C27.9833 18.7033 27.69 18.0067 27.69 17.09C27.69 16.76 27.7633 16.155 27.91 15.275C28.13 14.175 28.24 13.295 28.24 12.635C28.24 9.29833 26.4617 7.63 22.905 7.63C20.485 7.63 18.175 8.41833 15.975 9.995C13.775 11.5717 11.9967 13.9 10.64 16.98C9.28333 20.0233 8.605 23.6533 8.605 27.87C8.605 32.27 9.83333 35.68 12.29 38.1C14.7467 40.4833 18.3767 41.675 23.18 41.675C25.5633 41.675 27.965 41.3817 30.385 40.795C32.8417 40.1717 35.555 39.2367 38.525 37.99C39.075 37.77 39.5333 37.66 39.9 37.66C40.4867 37.66 40.9267 37.88 41.22 38.32C41.5133 38.76 41.66 39.3283 41.66 40.025C41.66 42.2617 40.45 43.9117 38.03 44.975C35.4267 46.1117 32.7133 46.955 29.89 47.505C27.1033 48.0183 24.445 48.275 21.915 48.275ZM41.2501 48.275C39.8567 48.275 38.8667 47.5417 38.2801 46.075C37.7301 44.6083 37.4551 42.2617 37.4551 39.035C37.4551 34.2683 38.1334 29.74 39.4901 25.45C39.8201 24.3867 40.3517 23.6167 41.0851 23.14C41.8551 22.6267 42.9184 22.37 44.2751 22.37C45.0084 22.37 45.5217 22.4617 45.8151 22.645C46.1084 22.8283 46.2551 23.1767 46.2551 23.69C46.2551 24.2767 45.9801 25.5967 45.4301 27.65C45.0634 29.1167 44.7701 30.4 44.5501 31.5C44.3301 32.6 44.1467 33.9567 44.0001 35.57C45.2101 32.4167 46.5667 29.85 48.0701 27.87C49.5734 25.89 51.0401 24.4783 52.4701 23.635C53.9367 22.7917 55.2751 22.37 56.4851 22.37C58.8684 22.37 60.0601 23.5617 60.0601 25.945C60.0601 26.4217 59.8951 27.5767 59.5651 29.41C59.2717 30.8767 59.1251 31.7933 59.1251 32.16C59.1251 33.4433 59.5834 34.085 60.5001 34.085C61.5267 34.085 62.8467 33.2783 64.4601 31.665C64.9367 31.1883 65.4317 30.95 65.9451 30.95C66.4217 30.95 66.7884 31.17 67.0451 31.61C67.3384 32.0133 67.4851 32.5633 67.4851 33.26C67.4851 34.6167 67.1184 35.68 66.3851 36.45C65.3584 37.5133 64.1484 38.43 62.7551 39.2C61.3984 39.9333 59.9501 40.3 58.4101 40.3C56.4667 40.3 54.9817 39.805 53.9551 38.815C52.9651 37.825 52.4701 36.4867 52.4701 34.8C52.4701 34.25 52.5251 33.7 52.6351 33.15C52.7084 32.4167 52.7451 31.9217 52.7451 31.665C52.7451 31.0783 52.5434 30.785 52.1401 30.785C51.5901 30.785 50.8567 31.4083 49.9401 32.655C49.0601 33.865 48.1801 35.4783 47.3001 37.495C46.4201 39.5117 45.7051 41.6383 45.1551 43.875C44.7517 45.5983 44.2751 46.7717 43.7251 47.395C43.2117 47.9817 42.3867 48.275 41.2501 48.275ZM86.9044 35.735C87.381 35.735 87.7477 35.955 88.0044 36.395C88.2977 36.835 88.4444 37.44 88.4444 38.21C88.4444 39.6767 88.096 40.8133 87.3994 41.62C86.0427 43.27 84.1177 44.7917 81.6244 46.185C79.1677 47.5783 76.5277 48.275 73.7044 48.275C69.8544 48.275 66.866 47.23 64.7394 45.14C62.6127 43.05 61.5494 40.19 61.5494 36.56C61.5494 34.03 62.081 31.6833 63.1444 29.52C64.2077 27.32 65.6744 25.5783 67.5444 24.295C69.451 23.0117 71.596 22.37 73.9794 22.37C76.106 22.37 77.811 23.0117 79.0944 24.295C80.3777 25.5417 81.0194 27.2467 81.0194 29.41C81.0194 31.94 80.1027 34.1217 78.2694 35.955C76.4727 37.7517 73.411 39.1817 69.0844 40.245C70.001 41.9317 71.7427 42.775 74.3094 42.775C75.9594 42.775 77.8294 42.2067 79.9194 41.07C82.046 39.8967 83.8794 38.375 85.4194 36.505C85.8594 35.9917 86.3544 35.735 86.9044 35.735ZM73.0444 27.76C71.6877 27.76 70.5327 28.5483 69.5794 30.125C68.6627 31.7017 68.2044 33.6083 68.2044 35.845V35.955C70.3677 35.4417 72.0727 34.6717 73.3194 33.645C74.566 32.6183 75.1894 31.4267 75.1894 30.07C75.1894 29.3733 74.9877 28.8233 74.5844 28.42C74.2177 27.98 73.7044 27.76 73.0444 27.76ZM112.016 31.115C112.493 31.115 112.86 31.3533 113.116 31.83C113.373 32.3067 113.501 32.9117 113.501 33.645C113.501 35.405 112.97 36.45 111.906 36.78C109.706 37.55 107.286 37.99 104.646 38.1C103.95 41.18 102.575 43.655 100.521 45.525C98.4678 47.3583 96.1395 48.275 93.5362 48.275C91.3362 48.275 89.4478 47.7433 87.8712 46.68C86.3312 45.6167 85.1578 44.205 84.3512 42.445C83.5445 40.685 83.1412 38.7783 83.1412 36.725C83.1412 33.9383 83.6728 31.4633 84.7362 29.3C85.7995 27.1 87.2662 25.395 89.1362 24.185C91.0062 22.9383 93.0778 22.315 95.3512 22.315C98.1378 22.315 100.375 23.2867 102.061 25.23C103.785 27.1367 104.793 29.5017 105.086 32.325C106.81 32.215 108.863 31.8483 111.246 31.225C111.54 31.1517 111.796 31.115 112.016 31.115ZM93.9762 42.445C95.1495 42.445 96.1578 41.9683 97.0012 41.015C97.8812 40.0617 98.4678 38.6867 98.7612 36.89C97.6245 36.12 96.7445 35.1117 96.1212 33.865C95.5345 32.6183 95.2412 31.2983 95.2412 29.905C95.2412 29.3183 95.2962 28.7317 95.4062 28.145H95.1312C93.6645 28.145 92.4362 28.86 91.4462 30.29C90.4928 31.6833 90.0162 33.6633 90.0162 36.23C90.0162 38.2467 90.4012 39.7867 91.1712 40.85C91.9778 41.9133 92.9128 42.445 93.9762 42.445ZM123.081 48.275C120.954 48.275 118.552 48.0917 115.876 47.725C114.409 47.5417 113.401 47.1567 112.851 46.57C112.301 45.9833 112.062 45.03 112.136 43.71C112.392 40.08 112.997 35.6067 113.951 30.29C114.904 24.9367 116.059 19.785 117.416 14.835C117.672 13.9183 118.186 13.2767 118.956 12.91C119.726 12.5433 120.734 12.36 121.981 12.36C124.217 12.36 125.336 12.9833 125.336 14.23C125.336 14.7433 125.226 15.33 125.006 15.99C124.052 18.9233 123.099 22.865 122.146 27.815C121.192 32.7283 120.514 37.4217 120.111 41.895C121.211 42.005 122.457 42.06 123.851 42.06C130.267 42.06 135.052 40.1167 138.206 36.23C141.396 32.3433 142.991 27.155 142.991 20.665C142.991 16.3017 141.744 12.9283 139.251 10.545C136.757 8.16166 133.237 6.97 128.691 6.97C125.757 6.97 122.842 7.42833 119.946 8.345C117.086 9.26166 114.501 10.4717 112.191 11.975C111.714 12.305 111.201 12.47 110.651 12.47C110.027 12.47 109.532 12.2133 109.166 11.7C108.799 11.15 108.616 10.49 108.616 9.72C108.616 8.84 108.762 8.125 109.056 7.575C109.349 6.98833 109.844 6.45666 110.541 5.98C113.071 4.25666 116.041 2.955 119.451 2.075C122.861 1.15833 126.142 0.699999 129.296 0.699999C133.769 0.699999 137.637 1.48833 140.901 3.065C144.164 4.605 146.676 6.87833 148.436 9.885C150.196 12.8917 151.076 16.5217 151.076 20.775C151.076 26.3117 149.976 31.1517 147.776 35.295C145.576 39.4017 142.367 42.5917 138.151 44.865C133.934 47.1383 128.911 48.275 123.081 48.275ZM179.287 35.735C179.764 35.735 180.131 35.955 180.387 36.395C180.681 36.835 180.827 37.44 180.827 38.21C180.827 39.6767 180.479 40.8133 179.782 41.62C178.426 43.27 176.501 44.7917 174.007 46.185C171.551 47.5783 168.911 48.275 166.087 48.275C162.237 48.275 159.249 47.23 157.122 45.14C154.996 43.05 153.932 40.19 153.932 36.56C153.932 34.03 154.464 31.6833 155.527 29.52C156.591 27.32 158.057 25.5783 159.927 24.295C161.834 23.0117 163.979 22.37 166.362 22.37C168.489 22.37 170.194 23.0117 171.477 24.295C172.761 25.5417 173.402 27.2467 173.402 29.41C173.402 31.94 172.486 34.1217 170.652 35.955C168.856 37.7517 165.794 39.1817 161.467 40.245C162.384 41.9317 164.126 42.775 166.692 42.775C168.342 42.775 170.212 42.2067 172.302 41.07C174.429 39.8967 176.262 38.375 177.802 36.505C178.242 35.9917 178.737 35.735 179.287 35.735ZM165.427 27.76C164.071 27.76 162.916 28.5483 161.962 30.125C161.046 31.7017 160.587 33.6083 160.587 35.845V35.955C162.751 35.4417 164.456 34.6717 165.702 33.645C166.949 32.6183 167.572 31.4267 167.572 30.07C167.572 29.3733 167.371 28.8233 166.967 28.42C166.601 27.98 166.087 27.76 165.427 27.76ZM186.579 49.485C184.672 49.485 183.206 49.045 182.179 48.165C181.189 47.285 180.694 46.295 180.694 45.195C180.694 44.2417 181.042 43.4167 181.739 42.72C182.436 42.0233 183.462 41.675 184.819 41.675C185.296 41.675 185.846 41.73 186.469 41.84C187.129 41.9133 187.624 41.9683 187.954 42.005C187.917 41.0517 187.697 40.1533 187.294 39.31C186.927 38.4667 186.451 37.66 185.864 36.89C185.277 36.0833 184.727 35.3867 184.214 34.8C183.077 36.9633 181.941 38.76 180.804 40.19C179.704 41.62 178.494 42.9767 177.174 44.26C176.514 44.92 175.817 45.25 175.084 45.25C174.497 45.25 174.021 45.0483 173.654 44.645C173.287 44.205 173.104 43.6733 173.104 43.05C173.104 42.3167 173.361 41.6383 173.874 41.015L174.589 40.135C176.606 37.6417 178.127 35.5883 179.154 33.975C179.777 32.9117 180.511 31.5 181.354 29.74C182.197 27.9433 183.022 26.0917 183.829 24.185C184.526 22.5717 185.974 21.765 188.174 21.765C189.201 21.765 189.916 21.8567 190.319 22.04C190.722 22.2233 190.924 22.5167 190.924 22.92C190.924 23.14 190.851 23.4883 190.704 23.965C190.557 24.4417 190.356 24.9183 190.099 25.395C189.439 26.715 189.109 27.8333 189.109 28.75C189.109 29.3 189.292 29.905 189.659 30.565C190.062 31.225 190.667 32.05 191.474 33.04C192.647 34.58 193.527 35.9 194.114 37C194.737 38.0633 195.049 39.2367 195.049 40.52C195.049 40.8867 195.012 41.4 194.939 42.06C196.736 41.3633 198.844 39.5117 201.264 36.505C201.704 35.9917 202.199 35.735 202.749 35.735C203.226 35.735 203.592 35.955 203.849 36.395C204.142 36.835 204.289 37.44 204.289 38.21C204.289 39.6033 203.941 40.74 203.244 41.62C201.411 43.8933 199.651 45.4517 197.964 46.295C196.314 47.1017 194.261 47.5417 191.804 47.615C190.337 48.8617 188.596 49.485 186.579 49.485ZM207.026 18.74C205.486 18.74 204.331 18.3917 203.561 17.695C202.791 16.9617 202.406 15.9533 202.406 14.67C202.406 13.3867 202.901 12.3233 203.891 11.48C204.917 10.6 206.182 10.16 207.686 10.16C209.042 10.16 210.142 10.49 210.986 11.15C211.829 11.81 212.251 12.745 212.251 13.955C212.251 15.4217 211.774 16.595 210.821 17.475C209.867 18.3183 208.602 18.74 207.026 18.74ZM206.586 48.275C204.202 48.275 202.461 47.4317 201.361 45.745C200.297 44.0583 199.766 41.8217 199.766 39.035C199.766 37.385 199.967 35.2767 200.371 32.71C200.811 30.1067 201.361 27.6867 202.021 25.45C202.351 24.2767 202.791 23.47 203.341 23.03C203.891 22.59 204.771 22.37 205.981 22.37C207.851 22.37 208.786 22.9933 208.786 24.24C208.786 25.1567 208.437 27.2833 207.741 30.62C206.861 34.6533 206.421 37.385 206.421 38.815C206.421 39.915 206.567 40.7583 206.861 41.345C207.154 41.9317 207.649 42.225 208.346 42.225C209.006 42.225 209.831 41.7667 210.821 40.85C211.811 39.9333 213.131 38.485 214.781 36.505C215.221 35.9917 215.716 35.735 216.266 35.735C216.742 35.735 217.109 35.955 217.366 36.395C217.659 36.835 217.806 37.44 217.806 38.21C217.806 39.6767 217.457 40.8133 216.761 41.62C213.131 46.0567 209.739 48.275 206.586 48.275ZM241.516 35.845C241.992 35.845 242.359 36.0833 242.616 36.56C242.909 37 243.056 37.5683 243.056 38.265C243.056 39.1083 242.927 39.7683 242.671 40.245C242.414 40.7217 242.011 41.1433 241.461 41.51C238.307 43.6367 235.997 45.2133 234.531 46.24L231.011 48.605C229.617 56.195 227.784 62.1533 225.511 66.48C223.274 70.8433 220.414 73.025 216.931 73.025C215.061 73.025 213.539 72.4383 212.366 71.265C211.192 70.1283 210.606 68.625 210.606 66.755C210.606 64.1517 211.632 61.3467 213.686 58.34C215.739 55.37 219.589 51.7033 225.236 47.34L225.566 45.195C224.942 46.185 224.117 46.955 223.091 47.505C222.101 48.0183 221.111 48.275 220.121 48.275C217.847 48.275 216.032 47.45 214.676 45.8C213.319 44.15 212.641 41.9867 212.641 39.31C212.641 36.3767 213.319 33.6083 214.676 31.005C216.032 28.365 217.829 26.2567 220.066 24.68C222.339 23.0667 224.741 22.26 227.271 22.26C228.077 22.26 228.609 22.425 228.866 22.755C229.159 23.0483 229.397 23.5983 229.581 24.405C230.277 24.2583 231.084 24.185 232.001 24.185C232.917 24.185 233.559 24.3317 233.926 24.625C234.329 24.8817 234.531 25.4133 234.531 26.22C234.531 26.66 234.512 27.0083 234.476 27.265C234.329 28.4017 233.871 31.28 233.101 35.9C232.954 36.78 232.789 37.7517 232.606 38.815C232.459 39.8417 232.294 40.9417 232.111 42.115C234.934 39.915 237.647 37.9717 240.251 36.285C240.727 35.9917 241.149 35.845 241.516 35.845ZM222.101 42.72C222.944 42.72 223.751 42.2067 224.521 41.18C225.291 40.1533 225.841 38.6867 226.171 36.78L227.931 27.375C226.427 27.4117 225.034 27.9983 223.751 29.135C222.467 30.235 221.441 31.7017 220.671 33.535C219.901 35.3683 219.516 37.3117 219.516 39.365C219.516 40.5017 219.736 41.345 220.176 41.895C220.652 42.445 221.294 42.72 222.101 42.72ZM217.536 67.69C218.452 67.69 219.479 66.59 220.616 64.39C221.789 62.19 222.907 58.6883 223.971 53.885C221.147 56.305 219.112 58.4867 217.866 60.43C216.619 62.3733 215.996 64.0783 215.996 65.545C215.996 66.1683 216.106 66.6817 216.326 67.085C216.582 67.4883 216.986 67.69 217.536 67.69ZM242.988 48.275C241.595 48.275 240.605 47.5417 240.018 46.075C239.468 44.6083 239.193 42.2617 239.193 39.035C239.193 34.2683 239.872 29.74 241.228 25.45C241.558 24.3867 242.09 23.6167 242.823 23.14C243.593 22.6267 244.657 22.37 246.013 22.37C246.747 22.37 247.26 22.4617 247.553 22.645C247.847 22.8283 247.993 23.1767 247.993 23.69C247.993 24.2767 247.718 25.5967 247.168 27.65C246.802 29.1167 246.508 30.4 246.288 31.5C246.068 32.6 245.885 33.9567 245.738 35.57C246.948 32.4167 248.305 29.85 249.808 27.87C251.312 25.89 252.778 24.4783 254.208 23.635C255.675 22.7917 257.013 22.37 258.223 22.37C260.607 22.37 261.798 23.5617 261.798 25.945C261.798 27.375 261.395 29.96 260.588 33.7C259.892 36.89 259.543 38.9983 259.543 40.025C259.543 41.4917 260.075 42.225 261.138 42.225C261.872 42.225 262.733 41.785 263.723 40.905C264.75 39.9883 266.107 38.5217 267.793 36.505C268.233 35.9917 268.728 35.735 269.278 35.735C269.755 35.735 270.122 35.955 270.378 36.395C270.672 36.835 270.818 37.44 270.818 38.21C270.818 39.6767 270.47 40.8133 269.773 41.62C268.197 43.5633 266.492 45.1583 264.658 46.405C262.862 47.6517 260.808 48.275 258.498 48.275C256.628 48.275 255.217 47.7433 254.263 46.68C253.31 45.58 252.833 44.0033 252.833 41.95C252.833 40.9233 253.09 39.09 253.603 36.45C254.08 34.14 254.318 32.545 254.318 31.665C254.318 31.0783 254.117 30.785 253.713 30.785C253.237 30.785 252.558 31.4083 251.678 32.655C250.835 33.865 249.955 35.4783 249.038 37.495C248.158 39.5117 247.443 41.6383 246.893 43.875C246.49 45.5983 246.013 46.7717 245.463 47.395C244.95 47.9817 244.125 48.275 242.988 48.275ZM290.899 35.735C291.375 35.735 291.742 35.955 291.999 36.395C292.292 36.835 292.439 37.44 292.439 38.21C292.439 39.6767 292.09 40.8133 291.394 41.62C290.037 43.27 288.112 44.7917 285.619 46.185C283.162 47.5783 280.522 48.275 277.699 48.275C273.849 48.275 270.86 47.23 268.734 45.14C266.607 43.05 265.544 40.19 265.544 36.56C265.544 34.03 266.075 31.6833 267.139 29.52C268.202 27.32 269.669 25.5783 271.539 24.295C273.445 23.0117 275.59 22.37 277.974 22.37C280.1 22.37 281.805 23.0117 283.089 24.295C284.372 25.5417 285.014 27.2467 285.014 29.41C285.014 31.94 284.097 34.1217 282.264 35.955C280.467 37.7517 277.405 39.1817 273.079 40.245C273.995 41.9317 275.737 42.775 278.304 42.775C279.954 42.775 281.824 42.2067 283.914 41.07C286.04 39.8967 287.874 38.375 289.414 36.505C289.854 35.9917 290.349 35.735 290.899 35.735ZM277.039 27.76C275.682 27.76 274.527 28.5483 273.574 30.125C272.657 31.7017 272.199 33.6083 272.199 35.845V35.955C274.362 35.4417 276.067 34.6717 277.314 33.645C278.56 32.6183 279.184 31.4267 279.184 30.07C279.184 29.3733 278.982 28.8233 278.579 28.42C278.212 27.98 277.699 27.76 277.039 27.76ZM310.18 29.905C310.987 29.905 311.665 30.1983 312.215 30.785C312.802 31.335 313.095 32.0317 313.095 32.875C313.095 33.3517 312.985 33.865 312.765 34.415C312.179 35.7717 311.354 36.9083 310.29 37.825C309.227 38.7417 308.054 39.2 306.77 39.2C305.744 39.2 304.864 38.8333 304.13 38.1C303.434 37.3667 303.085 36.3767 303.085 35.13C303.085 34.4333 303.122 33.6817 303.195 32.875C303.269 32.2883 303.305 31.885 303.305 31.665C303.305 31.3717 303.232 31.1517 303.085 31.005C302.975 30.8583 302.829 30.785 302.645 30.785C302.132 30.785 301.435 31.4083 300.555 32.655C299.675 33.865 298.795 35.4783 297.915 37.495C297.035 39.5117 296.32 41.6383 295.77 43.875C295.367 45.635 294.909 46.8083 294.395 47.395C293.882 47.9817 293.039 48.275 291.865 48.275C290.472 48.275 289.482 47.5417 288.895 46.075C288.345 44.6083 288.07 42.2617 288.07 39.035C288.07 34.2683 288.749 29.74 290.105 25.45C290.435 24.3867 290.967 23.6167 291.7 23.14C292.47 22.6267 293.534 22.37 294.89 22.37C295.624 22.37 296.137 22.4617 296.43 22.645C296.724 22.8283 296.87 23.1767 296.87 23.69C296.87 24.2767 296.595 25.5967 296.045 27.65C295.679 29.1167 295.385 30.4 295.165 31.5C294.945 32.6 294.762 33.9567 294.615 35.57C295.825 32.4167 297.182 29.85 298.685 27.87C300.189 25.89 301.655 24.4783 303.085 23.635C304.515 22.7917 305.817 22.37 306.99 22.37C308.054 22.37 308.86 22.6817 309.41 23.305C309.997 23.8917 310.29 24.7717 310.29 25.945C310.29 26.6417 310.089 27.9617 309.685 29.905H310.18Z" fill="#959467"/>
</svg>
