<svg width="38" height="38" viewBox="0 0 38 38" fill="none" xmlns="http://www.w3.org/2000/svg">
<path d="M17.5644 0H20.4356C20.5915 0.0520641 20.7506 0.0943682 20.9118 0.126667C28.4763 1.08933 33.7609 5.10045 36.6506 12.1296C37.3531 13.8371 37.5626 15.7472 38.0017 17.5644V20.4356C37.9465 20.6209 37.9019 20.8092 37.8683 20.9996C36.8921 28.4561 32.9249 33.6916 26.0241 36.5965C24.2744 37.3329 22.3085 37.5457 20.4372 38H17.5661C17.4105 37.9482 17.2513 37.9075 17.0899 37.8784C9.52701 36.9157 4.2408 32.9029 1.35111 25.8755C0.648533 24.1663 0.439111 22.2579 0 20.4406V17.5695C0.0439111 17.3804 0.108075 17.1946 0.133408 17.0037C1.1079 9.5473 5.0751 4.31343 11.9759 1.40854C13.7256 0.667116 15.6948 0.452622 17.5644 0ZM14.1022 17.757C14.6629 17.4851 15.1443 17.2621 15.6222 17.0223C16.5325 16.5629 16.7487 16.0242 16.3214 15.1021C15.5523 13.4112 15.1302 11.5832 15.0801 9.72632C15.0379 8.71298 14.6291 8.30089 13.6226 8.28907C12.4133 8.27556 11.2041 8.28907 9.99483 8.28907C8.68257 8.28907 8.25697 8.70284 8.30594 10.0067C8.50861 15.3132 10.4238 19.9086 14.1664 23.6867C17.9985 27.5542 22.6835 29.5252 28.12 29.7025C29.233 29.738 29.7025 29.2938 29.7126 28.2281C29.7261 26.9057 29.7312 25.585 29.7126 24.2626C29.6974 23.4181 29.2617 22.9621 28.4105 22.9334C26.4683 22.8876 24.5555 22.4481 22.7882 21.6414C22.0011 21.2783 21.4556 21.4979 21.0419 22.268C20.7649 22.7831 20.52 23.3134 20.2363 23.8876C17.6844 22.4238 15.5675 20.308 14.1022 17.757Z" fill="#979565"/>
</svg>
