<svg width="85" height="85" viewBox="0 0 85 85" fill="none" xmlns="http://www.w3.org/2000/svg">
<rect width="85" height="85" rx="10" fill="white"/>
<g clip-path="url(#clip0_7_1438)">
<path d="M51.3724 40.9788C52.2452 40.9788 53.0905 40.9015 53.9135 40.9943C54.8172 41.1014 55.6573 41.514 56.2947 42.1638C56.932 42.8136 57.3285 43.6616 57.4185 44.5675C57.4528 44.8664 57.47 45.1671 57.47 45.4681C57.47 50.3457 57.47 55.2233 57.47 60.101C57.47 60.2522 57.5181 60.431 57.4546 60.5461C57.2673 60.8899 57.0989 61.2817 56.8051 61.4897C56.4134 61.7647 55.9787 61.5722 55.6471 61.2387C54.5217 60.1147 53.4135 58.9718 52.2658 57.8753C52.0075 57.64 51.675 57.5026 51.326 57.4869C47.5032 57.4594 43.6804 57.4697 39.8576 57.4697C36.5932 57.4697 35.418 56.5484 34.6397 53.2365C34.3321 53.3912 34.0074 53.4737 33.7978 53.6765C32.6879 54.7541 31.602 55.8558 30.5162 56.9575C30.1468 57.3339 29.7533 57.602 29.2053 57.3837C28.6572 57.1655 28.53 56.6739 28.5318 56.1205C28.5318 51.1363 28.5318 46.1521 28.5318 41.1679C28.5318 38.5555 30.2911 36.7938 32.8992 36.7887C37.4957 36.7806 42.0917 36.7806 46.6871 36.7887C49.3124 36.7887 50.8106 38.0519 51.2453 40.6317C51.2808 40.7498 51.3233 40.8657 51.3724 40.9788ZM55.3464 58.1125C55.3791 57.7257 55.4031 57.5642 55.4031 57.4026C55.4031 53.3843 55.4031 49.366 55.4031 45.3478C55.4067 45.1119 55.3859 44.8764 55.3413 44.6448C55.1695 43.8095 54.654 43.2045 53.8259 43.0859C52.9978 42.9674 52.1731 43.0619 51.2728 43.0619V43.7666C51.2728 45.444 51.2728 47.1197 51.2728 48.7954C51.2625 51.6399 49.5804 53.3242 46.7472 53.3293C43.6982 53.3293 40.6485 53.3293 37.5983 53.3293H36.8475C36.9523 54.7198 37.7581 55.4021 39.2202 55.4038C43.3866 55.4038 47.553 55.4227 51.7178 55.3918C52.4703 55.3918 53.0338 55.5894 53.5201 56.16C54.0492 56.7908 54.6368 57.3751 55.3378 58.1125H55.3464ZM39.8834 44.0329C39.6115 44.0397 39.3532 44.1537 39.165 44.3501C38.9767 44.5465 38.8737 44.8093 38.8783 45.0813C38.8881 45.3521 39.0042 45.6082 39.2012 45.7941C39.3983 45.98 39.6606 46.0808 39.9315 46.0748C40.0657 46.0742 40.1984 46.0465 40.3216 45.9933C40.4448 45.9401 40.556 45.8625 40.6484 45.7652C40.7409 45.6679 40.8127 45.5529 40.8596 45.4271C40.9064 45.3013 40.9274 45.1673 40.9211 45.0332C40.9203 44.8982 40.8923 44.7646 40.8389 44.6406C40.7854 44.5165 40.7075 44.4045 40.6099 44.3112C40.5123 44.2179 40.3969 44.1452 40.2706 44.0973C40.1443 44.0495 40.0097 44.0276 39.8748 44.0329H39.8834ZM35.7599 46.073C35.8942 46.0779 36.0282 46.0555 36.1537 46.0071C36.2791 45.9588 36.3935 45.8855 36.4899 45.7917C36.5862 45.6979 36.6625 45.5855 36.7143 45.4613C36.766 45.3372 36.792 45.2038 36.7907 45.0693C36.793 44.9356 36.7688 44.8027 36.7195 44.6784C36.6703 44.554 36.5969 44.4407 36.5036 44.3448C36.4104 44.249 36.299 44.1725 36.1761 44.1199C36.0532 44.0672 35.9211 44.0395 35.7874 44.0381C35.516 44.0393 35.2556 44.1455 35.0608 44.3346C34.8661 44.5237 34.7521 44.7808 34.7428 45.0521C34.7454 45.3209 34.8528 45.578 35.0422 45.7687C35.2315 45.9594 35.4878 46.0686 35.7564 46.073H35.7599ZM45.048 45.0418C45.0476 44.9077 45.0205 44.7751 44.9682 44.6516C44.9159 44.5281 44.8395 44.4163 44.7435 44.3227C44.6476 44.229 44.5339 44.1555 44.4092 44.1064C44.2844 44.0572 44.1512 44.0334 44.0172 44.0364C43.7458 44.0427 43.488 44.1558 43.2995 44.3511C43.111 44.5464 43.0071 44.8082 43.0103 45.0796C43.0126 45.2138 43.0414 45.3463 43.0952 45.4692C43.1489 45.5922 43.2266 45.7033 43.3236 45.796C43.4206 45.8887 43.535 45.9613 43.6603 46.0094C43.7855 46.0576 43.9191 46.0804 44.0532 46.0765C44.1873 46.0761 44.3199 46.0487 44.443 45.9958C44.5662 45.9429 44.6775 45.8657 44.77 45.7687C44.8626 45.6718 44.9347 45.5571 44.9819 45.4316C45.029 45.3061 45.0504 45.1723 45.0446 45.0384L45.048 45.0418Z" fill="#333333"/>
<path d="M38.7631 20.1724C36.9488 17.261 38.0913 14.4887 39.727 13.167C40.6581 12.4066 41.8248 11.9941 43.0268 12.0004C44.2288 12.0066 45.3911 12.4313 46.3142 13.2014C48.1045 14.7001 48.9086 17.5411 47.2489 20.1363C47.2609 20.1724 47.2626 20.224 47.2901 20.2463C49.6371 22.1747 50.4102 24.7269 50.2109 27.659C50.0924 29.364 48.8364 30.5619 47.1183 30.5808C44.3917 30.6049 41.665 30.6014 38.9366 30.5808C37.0742 30.567 35.8062 29.2849 35.753 27.4133C35.6688 24.2148 36.411 22.4222 38.7631 20.1724ZM42.9914 28.5115H47.0496C47.6149 28.5115 48.053 28.2674 48.1114 27.6951C48.3365 25.4694 47.8898 23.4654 46.0892 21.9375C45.9734 21.8159 45.8194 21.7379 45.6529 21.7166C45.4864 21.6953 45.3177 21.7321 45.1751 21.8206C44.5117 22.1575 43.7792 22.3354 43.0352 22.3405C42.2913 22.3456 41.5563 22.1776 40.8884 21.8499C40.4245 21.6299 40.1514 21.7227 39.8163 22.0217C38.2099 23.4311 37.7391 25.2632 37.825 27.3067C37.8611 28.166 38.2082 28.5098 39.0621 28.5098C40.3764 28.5115 41.6822 28.5115 42.9914 28.5115Z" fill="#333333"/>
<path d="M23.4906 52.238C24.8943 53.3723 25.896 54.816 26.2276 56.6017C26.4259 57.7198 26.4882 58.8579 26.4131 59.991C26.3221 61.4415 25.0094 62.5827 23.4562 62.6085C20.6454 62.6549 17.8311 62.6652 15.0203 62.6085C13.2558 62.5724 12.0737 61.2336 12.0084 59.4668C11.926 57.1775 12.3795 55.0704 13.9173 53.2915C14.2385 52.9186 14.5822 52.5645 14.9722 52.1383C14.0942 50.7633 13.7935 49.1838 14.3657 47.5098C14.7252 46.4416 15.4316 45.5244 16.3724 44.9043C17.3164 44.2721 18.4425 43.9688 19.5762 44.0415C20.7099 44.1142 21.788 44.5588 22.6436 45.3065C24.5833 46.9891 24.8788 49.3454 23.4906 52.238ZM19.2331 60.5633C20.5406 60.5633 21.8498 60.5736 23.1573 60.5633C24.0473 60.553 24.3909 60.192 24.3995 59.2983C24.3995 58.891 24.415 58.482 24.3857 58.0763C24.3455 57.2819 24.1398 56.5046 23.7818 55.7943C23.4238 55.084 22.9214 54.4563 22.3068 53.9515C22.1995 53.8377 22.0561 53.7648 21.901 53.745C21.7459 53.7253 21.5887 53.76 21.4564 53.8432C20.0475 54.5221 18.5888 54.5685 17.1765 53.8965C16.6611 53.649 16.3639 53.7745 16.003 54.1027C14.4688 55.4983 13.9929 57.2772 14.0753 59.2777C14.1131 60.1903 14.4482 60.5581 15.3742 60.5667C16.6662 60.5719 17.948 60.5633 19.2331 60.5633Z" fill="#333333"/>
<path d="M62.4989 52.1847C60.6966 49.2492 61.8546 46.489 63.5109 45.1656C64.4504 44.4169 65.6204 44.0172 66.8214 44.0344C68.0225 44.0516 69.1805 44.4848 70.0982 45.2601C71.8163 46.7313 72.6891 49.5224 70.904 52.3067C71.05 52.3618 71.1886 52.4352 71.3163 52.525C73.5499 54.5066 74.2268 57.0675 73.9347 59.9257C73.7732 61.5137 72.5207 62.5913 70.8954 62.6137C68.1258 62.6498 65.3562 62.6567 62.5865 62.6137C60.8083 62.5845 59.5936 61.2972 59.5335 59.52C59.4235 56.2649 59.9733 54.9054 62.4989 52.1847ZM66.7375 60.5633C68.045 60.5633 69.3542 60.5633 70.6617 60.5633C71.3936 60.5633 71.8335 60.2797 71.8867 59.6833C72.0843 57.4611 71.6204 55.4605 69.813 53.9515C69.7048 53.8399 69.5619 53.7682 69.4078 53.7482C69.2536 53.7282 69.0973 53.7611 68.9642 53.8415C67.5571 54.5169 66.0967 54.5685 64.6826 53.8948C64.1672 53.649 63.8769 53.7676 63.5109 54.0976C61.9646 55.4932 61.5024 57.272 61.5935 59.2726C61.6347 60.2092 61.9371 60.5564 62.8786 60.565C64.1655 60.5719 65.461 60.5633 66.7375 60.5633Z" fill="#333333"/>
<path d="M42.622 74C36.3801 73.8848 30.5728 71.6918 25.6315 67.2662C25.0542 66.7506 24.9649 66.1043 25.3961 65.6369C25.8274 65.1694 26.4098 65.1969 26.9888 65.7176C30.4972 68.8628 34.5572 70.8875 39.2219 71.599C46.395 72.6938 52.7795 70.8703 58.3789 66.2711C58.6108 66.0803 58.8273 65.8706 59.0661 65.6781C59.6142 65.2295 60.2018 65.2433 60.6124 65.709C61.023 66.1748 60.9938 66.7798 60.4097 67.2249C58.8943 68.3799 57.4116 69.6053 55.7811 70.5764C51.85 72.9052 47.5461 73.9536 42.622 74Z" fill="#333333"/>
<path d="M32.5917 26.4336C32.4027 26.6158 32.1295 27.0042 31.7567 27.2104C29.1495 28.6288 26.8261 30.516 24.9031 32.7773C22.9481 35.0675 21.454 37.7141 20.503 40.5715C20.4497 40.7331 20.3965 40.8963 20.3312 41.0562C20.0666 41.7437 19.5924 41.9963 18.9825 41.7883C18.3725 41.5804 18.1492 41.0768 18.3811 40.3756C18.6302 39.6228 18.8965 38.8734 19.2041 38.1413C21.6095 32.5349 25.4924 28.2777 30.8529 25.3697C31.7464 24.8919 32.5934 25.2906 32.5917 26.4336Z" fill="#333333"/>
<path d="M54.5578 25.1291C54.7593 25.1996 54.9561 25.2828 55.1471 25.3783C61.2395 28.7091 65.3813 33.6715 67.5725 40.2656C67.8371 41.0647 67.6326 41.5821 66.9952 41.7883C66.3578 41.9946 65.887 41.7161 65.6207 40.9118C63.8872 35.6784 60.7619 31.4951 56.1917 28.4083C55.4649 27.9168 54.6832 27.5077 53.9324 27.0523C53.5011 26.7893 53.3001 26.406 53.441 25.9059C53.5819 25.4058 53.9135 25.1531 54.5578 25.1291Z" fill="#333333"/>
</g>
<defs>
<clipPath id="clip0_7_1438">
<rect width="62" height="62" fill="white" transform="translate(12 12)"/>
</clipPath>
</defs>
</svg>
