<svg width="85" height="85" viewBox="0 0 85 85" fill="none" xmlns="http://www.w3.org/2000/svg">
<rect width="85" height="85" rx="10" fill="white"/>
<g clip-path="url(#clip0_7_1439)">
<path d="M54.9904 64.032V74H31.0197V64.032C29.4848 64.222 28.02 64.3654 26.5718 64.5887C21.914 65.2871 18.0111 61.99 17.9961 57.2894C17.9816 51.9142 17.9816 46.5374 17.9961 41.1589C17.9961 39.2887 19.2709 38.0251 21.1357 38.0118C21.7607 38.0118 22.3856 38.0001 23.0105 38.0118C23.7798 38.013 24.5187 38.312 25.0723 38.8462C25.626 39.3804 25.9513 40.1083 25.9802 40.8772C25.9723 41.0375 26.0133 41.1964 26.0978 41.3327C26.1824 41.4691 26.3064 41.5765 26.4535 41.6406C28.1983 42.6274 28.5949 44.8861 27.1201 46.2413C26.1652 47.1197 25.9352 48.0448 25.9735 49.25C26.0452 51.4986 25.9935 53.7506 25.9952 56.0026C25.9952 56.836 26.1852 56.991 27.0134 56.8577L29.6065 56.4393C29.1315 55.4392 28.5433 54.5174 28.2316 53.5039C27.445 50.9386 28.4766 48.1698 30.6414 46.593C30.7413 46.5038 30.8223 46.3954 30.8796 46.2743C30.9368 46.1531 30.9692 46.0217 30.9747 45.8879C31.0013 43.7843 30.9747 41.679 30.9913 39.5737C31.0163 33.0195 36.2341 27.9055 42.7851 28.0088C48.7494 28.1021 53.7972 33.0778 53.9989 39.0369C54.0133 39.3998 54.1287 39.7513 54.3321 40.0521C56.1653 42.6108 56.2936 45.4045 55.5704 48.3482C55.3187 49.375 55.1804 50.4318 54.9987 51.4753C54.8788 52.1604 55.1654 52.6905 55.6653 53.1272C56.122 53.5222 56.6269 53.8773 57.0185 54.329C57.6233 55.0045 58.1707 55.7294 58.655 56.496C58.9033 56.901 59.215 56.956 59.5249 56.8577C59.6434 56.7981 59.7456 56.7104 59.8226 56.6024C59.8995 56.4943 59.9489 56.3691 59.9665 56.2376C59.9965 53.4039 59.9899 50.5702 59.9765 47.7364C59.96 47.537 59.8786 47.3486 59.7449 47.1997C59.4466 46.8547 59.095 46.553 58.7883 46.2146C57.4818 44.7727 57.7884 42.6341 59.4816 41.6673C59.6454 41.5925 59.7831 41.4701 59.8766 41.3162C59.9702 41.1623 60.0155 40.9838 60.0065 40.8039C60.0533 40.0691 60.3716 39.3781 60.8995 38.8651C61.4275 38.3521 62.1273 38.0539 62.8629 38.0285C63.6128 38.0001 64.3627 38.0018 65.1127 38.0285C65.8728 38.0477 66.5961 38.3598 67.1317 38.8995C67.6673 39.4393 67.9738 40.1651 67.9874 40.9255C68.0073 46.5513 68.059 52.1804 67.9657 57.8061C67.8957 62.1017 63.8928 65.2455 59.5349 64.6171C58.0534 64.3987 56.5636 64.232 54.9904 64.032ZM56.157 56.4176L56.2986 56.2243C56.0836 56.0692 55.8587 55.9275 55.6553 55.7575C55.2087 55.3825 54.7704 54.9974 54.3355 54.609C53.3789 53.7539 52.819 52.7104 53.0173 51.4003C53.2389 49.9434 53.5172 48.4932 53.8072 47.0464C54.2838 44.6577 53.9022 42.4974 52.2257 40.6405C52.0894 40.4442 52.0129 40.2126 52.0057 39.9737C51.9224 39.1886 51.9507 38.3835 51.7891 37.6168C50.7792 32.8278 46.353 29.539 41.6468 30.0407C36.6391 30.5741 33.0128 34.5847 32.9978 39.617C32.9978 42.0757 32.9828 44.5344 33.0078 46.993C33.0078 47.5114 32.9311 47.7965 32.3662 47.9748C31.4746 48.2549 30.8663 48.9283 30.4764 49.7767C29.7298 51.4436 29.7415 53.1105 30.9247 54.544C31.736 55.5161 32.6672 56.3815 33.696 57.1194C34.8009 57.9145 36.0574 58.4946 37.3023 59.1997C37.1057 59.7264 36.8824 60.3198 36.6107 61.0449L32.2629 58.7113C31.6796 59.8614 31.9296 60.9682 33.1144 62.1317C34.2493 63.2519 35.4059 64.352 36.6141 65.5205C38.2205 64.4937 39.4788 63.0768 39.8904 61.0199C40.1903 59.5197 39.8904 58.2045 38.7122 57.1627C38.3789 56.8743 38.0456 56.606 37.8023 56.4093C38.2222 55.6925 38.5722 55.1591 38.8538 54.5907C39.0638 54.1656 38.9038 53.8756 38.4789 53.5789C36.2308 52.0054 35.0509 49.8167 35.0076 47.068C34.9676 44.6944 34.9859 42.3174 35.0076 39.9421C35.0227 39.7995 35.0665 39.6614 35.1364 39.5362C35.2062 39.411 35.3008 39.3013 35.4142 39.2136C36.4307 38.4902 37.494 37.8301 38.5172 37.115C38.8505 36.8767 39.0921 36.855 39.4521 37.1017C40.9336 38.1168 42.5701 38.8102 44.3716 38.9103C46.323 39.0169 48.2828 38.9836 50.2393 39.0103C50.4809 39.0103 50.7209 39.0103 50.9925 39.0103C50.9925 41.6606 50.9825 44.2226 50.9925 46.783C51.0042 49.2567 50.1076 51.3219 48.2978 53.0072C48.1319 53.1763 48.0279 53.3966 48.0028 53.6322C47.9612 54.1323 47.9895 54.6324 47.9895 55.1591L56.157 56.4176ZM62.0013 48.0515V48.7533C62.0013 51.2336 62.0013 53.7139 62.0013 56.1926C62.0013 57.9912 60.7198 59.128 58.955 58.878C57.2452 58.6363 55.5404 58.3512 53.8339 58.0878L49.501 57.4211L47.5979 65.9156L47.3646 66.0822L46.0797 64.4604L45.9314 64.577C46.2447 67.0485 46.5591 69.5238 46.8746 72.003H53.0173V61.865C55.2704 62.1134 57.4435 62.3001 59.5999 62.6034C63.2229 63.1135 65.9926 60.7832 65.9976 57.1427C65.9976 54.309 65.9976 51.4753 65.9976 48.6416C65.9976 48.4415 65.9792 48.2415 65.9709 48.0465L62.0013 48.0515ZM48.8944 41.0172C48.3645 41.0172 47.8245 40.9989 47.2846 41.0172C44.4732 41.1306 41.7618 40.7855 39.2671 39.3503C39.1868 39.3183 39.1004 39.3043 39.014 39.3091C38.9276 39.314 38.8434 39.3378 38.7672 39.3787C38.2484 39.6829 37.7476 40.0168 37.2673 40.3788C37.1901 40.451 37.1279 40.5379 37.0844 40.6343C37.041 40.7307 37.017 40.8348 37.014 40.9405C36.9974 43.0441 36.9674 45.1494 37.014 47.2531C37.0857 50.2635 39.5587 52.7871 42.5651 52.9938C45.6348 53.2022 48.5278 51.0736 48.8461 48.0448C49.0844 45.7595 48.8911 43.4142 48.8911 41.0172H48.8944ZM20.0142 48.0498C20.0142 51.3836 19.9075 54.674 20.0525 57.9545C20.1458 60.0514 21.404 61.5233 23.3672 62.3334C24.427 62.7718 25.5169 62.7168 26.6235 62.5634C27.8933 62.3884 29.1699 62.2517 30.4231 62.1C30.2731 61.4583 30.0681 60.8865 30.0198 60.2998C29.9714 59.7131 30.0731 59.0696 30.1131 58.4029L27.1501 58.8646C25.3169 59.1513 23.9987 58.0312 23.9954 56.1793C23.9954 53.8873 23.9954 51.597 23.9954 49.3067V48.0465L20.0142 48.0498ZM33.0378 64.8471V71.988H39.0738C39.2293 69.9344 39.381 67.9231 39.5287 65.9539L35.4175 68.5742C35.0626 66.944 34.2943 65.7722 33.0378 64.8471ZM41.0786 72.0014H44.8515C44.7715 71.3513 44.6982 70.7345 44.6199 70.1195C44.2866 67.5208 43.9633 64.9238 43.62 62.3284C43.53 61.6367 42.5651 60.9632 41.9118 61.1283C41.6385 64.7237 41.3619 68.3276 41.0786 72.0014ZM20.0058 46.0196C21.1474 46.0196 22.2139 45.9429 23.2622 46.0412C24.2621 46.1346 24.987 45.8195 25.5619 45.0411C25.5986 44.9911 25.6502 44.9527 25.6919 44.9061C26.1818 44.3393 26.1169 43.6276 25.4136 43.3725C24.2737 42.9575 23.7854 42.3007 23.9754 41.0655C24.0704 40.4488 23.6105 40.0438 22.9939 40.0204C22.3273 39.9954 21.6607 39.9954 20.9941 40.0204C20.4158 40.0438 20.0275 40.3771 20.0158 40.9522C19.9792 42.6191 20.0058 44.281 20.0058 46.0196ZM66.0009 46.0196C66.0009 44.2843 66.0176 42.6224 65.9926 40.9622C65.9826 40.3888 65.561 40.0388 64.9527 40.0221C64.3444 40.0054 63.7028 40.0037 63.0795 40.0221C62.4129 40.0404 62.0447 40.4105 62.0097 41.0706C61.9813 41.3187 61.9813 41.5692 62.0097 41.8173C62.1263 42.4641 61.8213 42.7674 61.2581 43.0292C59.6466 43.7776 59.5916 44.196 60.8414 45.4328C61.0814 45.6662 61.3864 45.9829 61.6747 45.9945C63.0795 46.0512 64.5011 46.0196 66.0009 46.0196ZM40.9136 54.7341C40.7969 55.0991 40.6853 55.3891 40.617 55.6909C40.5576 55.8728 40.5576 56.069 40.617 56.2509C41.0986 57.1511 41.6169 58.0328 42.1951 59.0546C42.3451 58.978 42.6851 58.888 42.9117 58.6713C43.7733 57.8561 44.5649 56.961 45.4531 56.1709C46.0081 55.6825 46.0664 55.1491 45.9447 54.459C44.3066 55.0641 42.6534 55.2158 40.9136 54.7341ZM44.5632 59.9181L46.448 61.8767L47.5029 57.141C47.3796 57.166 47.3012 57.1577 47.2663 57.1927C46.3363 58.1195 45.4181 59.0513 44.5632 59.9181Z" fill="#333333"/>
<path d="M30.0047 20.8779C29.9047 24.08 28.6715 26.5703 26.1534 28.3522C25.3202 28.9473 24.9386 29.6507 24.9752 30.6625C25.0226 31.4102 24.9834 32.1608 24.8586 32.8995C24.4686 34.8581 22.6038 36.1833 20.6207 36.0016C19.6602 35.9042 18.7668 35.4648 18.1033 34.7635C17.4397 34.0622 17.0503 33.1456 17.0061 32.1811C16.9861 31.6393 16.9794 31.0959 17.0061 30.5558C17.0477 29.6174 16.6728 28.9406 15.9012 28.3889C13.2348 26.5103 11.9399 23.9016 12.0116 20.6445C12.1099 16.1439 15.8862 12.2801 20.399 12.01C25.0819 11.73 29.2647 15.0888 29.8863 19.6327C29.9397 20.0928 29.9763 20.5478 30.0047 20.8779ZM23.0054 29.9908C23.1504 28.5039 23.902 27.4904 25.0685 26.6803C26.2719 25.8363 27.1737 24.6293 27.6421 23.2359C28.1104 21.8425 28.1208 20.3357 27.6716 18.9359C27.2306 17.5193 26.351 16.2795 25.1598 15.3953C23.9685 14.5111 22.5273 14.0284 21.044 14.0167C19.5606 14.005 18.112 14.465 16.907 15.3303C15.702 16.1956 14.803 17.4214 14.3397 18.8309C13.8594 20.2653 13.8627 21.8177 14.3491 23.25C14.8356 24.6823 15.7783 25.9154 17.0327 26.7603C18.0876 27.4904 18.7575 28.4272 18.9442 29.6991C18.9592 29.7957 18.9909 29.8908 19.0092 29.9691H19.9874C19.9874 27.9922 19.9974 26.0569 19.9708 24.1216C19.9708 23.955 19.7608 23.7499 19.5958 23.6533C18.6226 23.0848 18.056 22.2597 17.996 21.1329C17.9749 20.4288 18.2022 19.7397 18.638 19.1863C19.0739 18.6329 19.6905 18.2506 20.3798 18.1063C21.0692 17.962 21.7873 18.0649 22.4084 18.397C23.0295 18.7291 23.514 19.2692 23.777 19.9227C24.046 20.5863 24.0611 21.3258 23.8195 21.9998C23.5778 22.6738 23.0964 23.2351 22.4671 23.5766C22.0555 23.7966 21.9755 24.04 21.9822 24.445C22.0005 25.7169 21.9822 26.9887 21.9822 28.2589V29.9908H23.0054ZM19.0142 32.0277C19.1258 33.2912 20.0607 34.1113 21.1906 33.998C22.2172 33.8946 23.0038 32.9978 22.9121 32.0277H19.0142ZM20.9856 21.9964C21.1839 21.9987 21.3783 21.942 21.5443 21.8335C21.7103 21.725 21.8402 21.5696 21.9177 21.3871C21.9952 21.2046 22.0166 21.0031 21.9794 20.8084C21.9421 20.6136 21.8478 20.4343 21.7085 20.2933C21.5691 20.1522 21.391 20.0558 21.1967 20.0162C21.0024 19.9767 20.8008 19.9958 20.6174 20.0712C20.434 20.1465 20.2772 20.2747 20.1668 20.4394C20.0564 20.6041 19.9974 20.7979 19.9974 20.9962C19.9956 21.2606 20.0986 21.515 20.2838 21.7036C20.469 21.8923 20.7213 21.9999 20.9856 22.003V21.9964Z" fill="#333333"/>
<path d="M60.2831 33.9963C60.0148 33.2112 59.7482 32.4311 59.4499 31.571C58.81 31.8893 58.1984 32.1744 57.6034 32.4944C57.2851 32.6611 57.0718 32.6711 56.7952 32.3827C55.7553 31.3043 54.6921 30.2475 53.6172 29.2006C53.3672 28.9556 53.3172 28.7639 53.4889 28.4489C53.8222 27.8505 54.1038 27.2271 54.4404 26.5503C53.7288 26.3136 53.0589 26.1086 52.4073 25.8569C52.2407 25.7919 52.014 25.5785 52.0124 25.4318C51.984 23.7249 51.994 22.0197 51.994 20.2978L54.4404 19.4643C54.1071 18.7976 53.8138 18.1608 53.4805 17.5457C53.3255 17.2574 53.3589 17.074 53.5922 16.8457C54.6787 15.7822 55.7536 14.707 56.8168 13.6202C57.0685 13.3602 57.2685 13.3435 57.5718 13.5069C58.1734 13.8319 58.7933 14.122 59.4499 14.4487C59.7332 13.6152 60.0015 12.8351 60.2831 12.0317H65.7159C65.9825 12.8034 66.2575 13.6002 66.5491 14.4587C67.2007 14.1253 67.8173 13.8403 68.4173 13.5152C68.7122 13.3485 68.9172 13.3485 69.1722 13.6119C70.2304 14.7037 71.3086 15.7788 72.3935 16.839C72.6235 17.0657 72.6751 17.2457 72.5135 17.5391C72.1802 18.1392 71.8985 18.7609 71.5536 19.456L74 20.2961C74 22.0147 74.01 23.7199 73.9833 25.4268C73.9833 25.5752 73.76 25.7919 73.5934 25.8569C72.9401 26.1102 72.2702 26.3169 71.5586 26.557C71.8919 27.2437 72.2252 27.8655 72.5052 28.5139C72.5387 28.6182 72.5474 28.7288 72.5306 28.837C72.5138 28.9453 72.472 29.0481 72.4085 29.1373C71.3403 30.2475 70.2337 31.3226 69.1572 32.4244C68.9205 32.6661 68.7339 32.6711 68.4539 32.5211C67.8523 32.1877 67.2324 31.906 66.5525 31.5676C66.2642 32.4011 65.9892 33.1962 65.7192 33.9963H60.2831ZM70.2571 28.4522C69.9554 27.8471 69.6571 27.2754 69.3872 26.6903C69.2912 26.5131 69.2561 26.3093 69.2872 26.1102C69.4855 25.4735 69.7138 24.8467 70.5387 24.7651C70.802 24.7384 71.0386 24.57 71.3103 24.525C71.8585 24.4333 72.0702 24.16 72.0102 23.5899C71.9485 22.9931 72.1985 22.2214 71.9052 21.8297C71.5919 21.4113 70.8087 21.3413 70.2237 21.1362C70.0416 21.0641 69.8761 20.9555 69.7374 20.8172C69.5988 20.6788 69.4898 20.5136 69.4172 20.3316C69.3447 20.1496 69.3101 19.9547 69.3155 19.7589C69.3209 19.563 69.3663 19.3703 69.4488 19.1926C69.7221 18.6409 69.9921 18.0875 70.2687 17.5257C69.9354 17.1924 69.6171 16.919 69.3355 16.6123C69.0539 16.3056 68.8089 15.9722 68.5789 15.6888C67.8906 16.0305 67.3524 16.2606 66.8524 16.554C66.4691 16.779 66.1475 16.7556 65.7442 16.6006C65.2443 16.4073 64.911 16.1389 64.7926 15.5872C64.6925 15.1623 64.5531 14.7476 64.376 14.3487C64.3194 14.2103 64.1427 14.0286 64.0177 14.0253C63.2695 14.0053 62.4246 13.8252 61.8096 14.117C61.408 14.307 61.343 15.2038 61.1264 15.7838C61.1264 15.8022 61.1164 15.8239 61.1097 15.8439C60.8897 16.4823 59.8982 16.9073 59.2966 16.6173C58.695 16.3273 58.1184 16.0339 57.6301 15.7938L55.767 17.6274C56.0119 18.1275 56.2452 18.6559 56.5352 19.1576C56.7568 19.5394 56.7318 19.8577 56.5885 20.2661C56.5201 20.5136 56.3833 20.7367 56.1937 20.9098C56.0041 21.0829 55.7696 21.1989 55.517 21.2446C55.1123 21.3425 54.7165 21.4741 54.3338 21.638C54.1954 21.6963 54.0138 21.8697 54.0105 21.9947C53.9905 22.7431 53.8238 23.5766 54.1005 24.2066C54.2671 24.59 55.1503 24.6584 55.7103 24.8734C55.7303 24.8817 55.7503 24.8834 55.7703 24.8901C56.4919 25.1351 56.9085 26.1086 56.5769 26.782C56.2952 27.3537 56.0119 27.9238 55.7836 28.3855L57.6167 30.2525C58.16 29.9791 58.7266 29.6657 59.3182 29.419C59.5603 29.3412 59.819 29.3309 60.0665 29.389C60.7514 29.5074 61.133 29.9291 61.258 30.6242C61.3354 30.9904 61.4556 31.3463 61.6163 31.6843C61.678 31.8227 61.8496 32.006 61.9746 32.0094C62.7212 32.0294 63.5678 32.2094 64.1827 31.9193C64.5843 31.7293 64.651 30.8309 64.866 30.2525C64.881 30.2124 64.886 30.1708 64.901 30.1324C65.1059 29.5557 66.1392 29.1423 66.6974 29.414C67.289 29.7024 67.8773 29.9974 68.4289 30.2691L70.2571 28.4522Z" fill="#333333"/>
<path d="M50.0025 19.0076C50.0025 20.3923 49.592 21.7458 48.8229 22.8971C48.0539 24.0484 46.9607 24.9458 45.6818 25.4756C44.4028 26.0055 42.9955 26.1442 41.6378 25.874C40.2801 25.6039 39.0329 24.9371 38.0541 23.958C37.0752 22.9789 36.4086 21.7315 36.1385 20.3734C35.8685 19.0154 36.0071 17.6077 36.5368 16.3285C37.0666 15.0492 37.9637 13.9558 39.1147 13.1865C40.2657 12.4173 41.619 12.0067 43.0033 12.0067C44.858 12.012 46.6352 12.7513 47.9467 14.063C49.2581 15.3748 49.9973 17.1525 50.0025 19.0076ZM43.0349 14.007C42.0467 14.0007 41.0789 14.2876 40.2536 14.8313C39.4283 15.375 38.7826 16.1511 38.398 17.0617C38.0135 17.9722 37.9074 18.9763 38.0931 19.9472C38.2788 20.918 38.748 21.8121 39.4414 22.5164C40.1348 23.2206 41.0213 23.7036 41.989 23.9042C42.9566 24.1047 43.962 24.014 44.8781 23.6433C45.7942 23.2727 46.58 22.6388 47.1361 21.8217C47.6923 21.0047 47.9938 20.041 48.0027 19.0526C48.0074 18.3944 47.8823 17.7417 47.6347 17.1318C47.3871 16.5219 47.0219 15.9668 46.5598 15.4981C46.0977 15.0294 45.5479 14.6563 44.9416 14.4002C44.3354 14.1441 43.6847 14.0099 43.0266 14.0053L43.0349 14.007Z" fill="#333333"/>
<path d="M62.9745 28.0088C61.9865 28.0035 61.0222 27.7056 60.2034 27.1525C59.3846 26.5995 58.7479 25.8162 58.3739 24.9015C57.9998 23.9868 57.9051 22.9817 58.1017 22.0132C58.2983 21.0447 58.7773 20.1562 59.4784 19.4599C60.1795 18.7635 61.0711 18.2905 62.0407 18.1007C63.0103 17.9108 64.0144 18.0126 64.9263 18.3931C65.8381 18.7737 66.6168 19.4159 67.1639 20.2388C67.7111 21.0616 68.0023 22.0282 68.0006 23.0165C67.9945 24.3447 67.4618 25.6162 66.5196 26.5521C65.5773 27.4881 64.3024 28.0119 62.9745 28.0088ZM62.9928 20.0077C62.4007 20.0094 61.8223 20.1863 61.3305 20.5162C60.8387 20.8461 60.4555 21.3142 60.2292 21.8615C60.0029 22.4088 59.9437 23.0109 60.0589 23.5919C60.1741 24.1728 60.4586 24.7067 60.8766 25.1262C61.2946 25.5457 61.8274 25.8321 62.4079 25.9492C62.9883 26.0664 63.5904 26.0091 64.1384 25.7846C64.6863 25.5601 65.1556 25.1783 65.487 24.6875C65.8184 24.1967 65.9972 23.6188 66.0008 23.0265C66.0026 22.2286 65.6877 21.4627 65.1252 20.897C64.5628 20.3313 63.7988 20.0121 63.0012 20.0094L62.9928 20.0077Z" fill="#333333"/>
<path d="M39.3821 19.656L40.7886 18.3425C41.0902 18.7526 41.4335 19.216 41.7885 19.7027L45.2181 16.2506C45.7381 16.799 46.1647 17.2507 46.528 17.6324L41.9551 22.2364L39.3821 19.656Z" fill="#333333"/>
</g>
<defs>
<clipPath id="clip0_7_1439">
<rect width="62" height="62" fill="white" transform="translate(12 12)"/>
</clipPath>
</defs>
</svg>
